HIERARCHY
ROOT Hips
{
	OFFSET 0.00000 0.00000 0.00000
	CHANNELS 6 Xposition Yposition Zposition Zrotation Yrotation Xrotation 
	JOINT LHipJoint
	{
		OFFSET 0 0 0
		CHANNELS 3 Zrotation Yrotation Xrotation
		JOINT LeftUpLeg
		{
			OFFSET 1.41261 -1.82971 0.84908
			CHANNELS 3 Zrotation Yrotation Xrotation
			JOINT LeftLeg
			{
				OFFSET 2.52554 -6.93888 0.00000
				CHANNELS 3 Zrotation Yrotation Xrotation
				JOINT LeftFoot
				{
					OFFSET 2.56654 -7.05152 0.00000
					CHANNELS 3 Zrotation Yrotation Xrotation
					JOINT LeftToeBase
					{
						OFFSET 0.21698 -0.59616 1.85369
						CHANNELS 3 Zrotation Yrotation Xrotation
						End Site
						{
							OFFSET 0.00000 -0.00000 0.97832
						}
					}
				}
			}
		}
	}
	JOINT RHipJoint
	{
		OFFSET 0 0 0
		CHANNELS 3 Zrotation Yrotation Xrotation
		JOINT RightUpLeg
		{
			OFFSET -1.12808 -1.82971 0.84907
			CHANNELS 3 Zrotation Yrotation Xrotation
			JOINT RightLeg
			{
				OFFSET -2.53425 -6.96280 0.00000
				CHANNELS 3 Zrotation Yrotation Xrotation
				JOINT RightFoot
				{
					OFFSET -2.58413 -7.09983 0.00000
					CHANNELS 3 Zrotation Yrotation Xrotation
					JOINT RightToeBase
					{
						OFFSET -0.26437 -0.72636 1.92241
						CHANNELS 3 Zrotation Yrotation Xrotation
						End Site
						{
							OFFSET -0.00000 -0.00000 1.02667
						}
					}
				}
			}
		}
	}
	JOINT LowerBack
	{
		OFFSET 0 0 0
		CHANNELS 3 Zrotation Yrotation Xrotation
		JOINT Spine
		{
			OFFSET -0.02096 2.02288 -0.14752
			CHANNELS 3 Zrotation Yrotation Xrotation
			JOINT Spine1
			{
				OFFSET 0.03477 2.03136 -0.02358
				CHANNELS 3 Zrotation Yrotation Xrotation
				JOINT Neck
				{
					OFFSET 0 0 0
					CHANNELS 3 Zrotation Yrotation Xrotation
					JOINT Neck1
					{
						OFFSET 0.00174 1.74359 0.19336
						CHANNELS 3 Zrotation Yrotation Xrotation
						JOINT Head
						{
							OFFSET -0.03054 1.76140 -0.17751
							CHANNELS 3 Zrotation Yrotation Xrotation
							End Site
							{
								OFFSET -0.00863 1.77239 -0.08120
							}
						}
					}
				}
				JOINT LeftShoulder
				{
					OFFSET 0 0 0
					CHANNELS 3 Zrotation Yrotation Xrotation
					JOINT LeftArm
					{
						OFFSET 3.68685 1.32687 -0.67367
						CHANNELS 3 Zrotation Yrotation Xrotation
						JOINT LeftForeArm
						{
							OFFSET 4.76468 -0.00000 -0.00000
							CHANNELS 3 Zrotation Yrotation Xrotation
							JOINT LeftHand
							{
								OFFSET 3.52712 -0.00000 -0.00000
								CHANNELS 3 Zrotation Yrotation Xrotation
								JOINT LeftFingerBase
								{
									OFFSET 0 0 0
									CHANNELS 3 Zrotation Yrotation Xrotation
									JOINT LeftHandIndex1
									{
										OFFSET 0.85956 -0.00000 -0.00000
										CHANNELS 3 Zrotation Yrotation Xrotation
										End Site
										{
											OFFSET 0.69300 -0.00000 -0.00000
										}
									}
								}
								JOINT LThumb
								{
									OFFSET 0 0 0
									CHANNELS 3 Zrotation Yrotation Xrotation
									End Site
									{
										OFFSET 0.70358 -0.00000 0.70358
									}
								}
							}
						}
					}
				}
				JOINT RightShoulder
				{
					OFFSET 0 0 0
					CHANNELS 3 Zrotation Yrotation Xrotation
					JOINT RightArm
					{
						OFFSET -3.31304 1.28268 -0.97357
						CHANNELS 3 Zrotation Yrotation Xrotation
						JOINT RightForeArm
						{
							OFFSET -4.90577 -0.00000 -0.00000
							CHANNELS 3 Zrotation Yrotation Xrotation
							JOINT RightHand
							{
								OFFSET -3.42692 -0.00000 0.00000
								CHANNELS 3 Zrotation Yrotation Xrotation
								JOINT RightFingerBase
								{
									OFFSET 0 0 0
									CHANNELS 3 Zrotation Yrotation Xrotation
									JOINT RightHandIndex1
									{
										OFFSET -0.74096 -0.00000 -0.00000
										CHANNELS 3 Zrotation Yrotation Xrotation
										End Site
										{
											OFFSET -0.59738 -0.00000 -0.00000
										}
									}
								}
								JOINT RThumb
								{
									OFFSET 0 0 0
									CHANNELS 3 Zrotation Yrotation Xrotation
									End Site
									{
										OFFSET -0.60650 -0.00000 0.60650
									}
								}
							}
						}
					}
				}
			}
		}
	}
}
MOTION
Frames: 15
Frame Time: .0083333
-15.9599 17.2899 -30.7309 0 0 0 0 0 0 -21 0 0 0 0 0 0 0 0 0 0 0 0 0 0 21 0 0 0 0 0 0 0 0 0 0 0 0 0 0 0 0 0 0 0 0 0 0 -16 0 0 21 0 0 11 0 0 0 -8 0 0 0 0 0 0 0 0 0 0 0 0 0 0 0 0 0 0 0 0 8 0 0 0 0 0 0 0 0 0 0 0 0 0 0 0 0 0
-15.9599 17.2899 -30.7309 0.5489 21.8112 7.6696 0.0000 0.0000 0.0000 -24.2788 -6.3080 -7.8103 3.0922 10.8429 31.7518 2.6781 -5.3794 -29.8121 1.6310 -8.0511 -22.8694 0.0000 0.0000 0.0000 18.2988 2.3277 -15.5941 -5.2452 -13.6547 41.8714 -2.8633 8.5192 -30.5661 -0.8835 -5.9919 16.7608 -4.7487 0.5839 8.8743 2.0360 0.4042 0.7397 4.7584 0.3076 -4.2597 -2.8777 1.0196 -14.6893 0.9631 1.9415 20.3778 1.0361 0.8092 8.7549 0.0000 0.0000 0.0000 -99.6406 6.3056 4.2529 20.1214 -30.7883 -5.5933 -0.0000 -0.0000 5.8184 6.8082 -14.9090 -1.7594 -7.1250 0.0000 -0.0000 -14.0029 15.2618 10.1349 0.0000 0.0000 0.0000 89.7711 2.3977 15.4551 -14.0665 22.8297 -2.8539 0.0000 0.0000 1.6955 -9.5838 -36.3721 5.7180 7.1250 -0.0000 -0.0000 30.4947 -64.2103 -14.8521
-15.8893 17.2314 -30.6417 1.4760 21.5315 8.2608 0.0000 0.0000 0.0000 -25.4109 -6.1075 -7.6646 3.0888 10.8374 31.7334 2.7632 -5.6243 -30.2714 1.5489 -7.8554 -22.2758 0.0000 0.0000 0.0000 17.1571 2.1377 -17.1544 -5.9958 -14.4242 44.9647 -2.7714 8.2177 -30.0661 -0.7951 -5.6917 15.8924 -5.5191 0.6666 9.0555 1.7205 0.4142 0.7880 4.8633 0.3241 -4.3152 -2.7777 1.0482 -14.6560 1.0206 1.9370 20.0330 1.0343 0.8237 8.6313 0.0000 0.0000 0.0000 -99.4872 6.2403 4.6617 20.3130 -31.0175 -5.6917 -0.0000 -0.0000 5.6813 6.9456 -15.0177 -1.8080 -7.1250 0.0000 -0.0000 -13.9065 15.1481 10.0958 0.0000 0.0000 0.0000 89.8798 2.4302 15.8321 -14.5196 23.4726 -3.0320 0.0000 0.0000 1.2683 -9.1503 -36.2102 5.4356 7.1250 -0.0000 -0.0000 30.7564 -63.9572 -14.8111
-15.8158 17.1905 -30.5446 2.3590 21.2689 8.8448 0.0000 0.0000 0.0000 -26.4929 -5.7343 -7.3631 3.0027 10.6994 31.2726 2.7878 -5.8527 -30.3825 1.4916 -7.7153 -21.8527 0.0000 0.0000 0.0000 15.9639 2.1543 -19.1601 -6.9970 -15.3294 48.8630 -2.5629 8.0011 -28.8750 -0.7398 -5.4948 15.3255 -6.2426 0.7339 9.2495 1.4001 0.4051 0.8507 4.9380 0.3299 -4.3599 -2.6476 1.1032 -14.7658 1.0757 1.9673 19.7404 1.0325 0.8555 8.5516 0.0000 0.0000 0.0000 -99.2255 6.1286 5.3024 20.4987 -31.2385 -5.7878 -0.0000 -0.0000 5.4899 7.1085 -15.3296 -1.8883 -7.1250 0.0000 -0.0000 -13.7851 14.8344 10.0977 0.0000 0.0000 0.0000 89.9993 2.4739 16.2365 -14.9774 24.1147 -3.2167 0.0000 0.0000 0.9309 -8.8303 -36.1011 5.2299 7.1250 -0.0000 -0.0000 30.9618 -63.7800 -14.7921
-15.7380 17.1659 -30.4373 2.9886 21.0518 9.3141 0.0000 0.0000 0.0000 -27.3285 -5.4183 -6.9606 2.9157 10.5574 30.8013 2.8158 -5.9350 -30.5317 1.4317 -7.5657 -21.4026 0.0000 0.0000 0.0000 14.9443 2.3015 -21.2391 -8.0353 -16.1452 52.6897 -2.1019 7.6037 -26.0664 -0.8262 -5.7992 16.2030 -6.7733 0.7254 9.3889 1.1960 0.3238 0.9731 5.0347 0.2922 -4.3003 -2.5360 1.2015 -14.8967 1.0808 2.0745 19.5281 1.0268 0.9158 8.5022 -0.0000 -0.0000 0.0000 -99.0592 5.8673 5.9847 20.6513 -31.4190 -5.8671 -0.0000 -0.0000 5.3044 7.6170 -15.4646 -2.0422 -7.1250 0.0000 -0.0000 -13.4422 14.6725 9.8795 -0.0000 -0.0000 0.0000 89.9580 2.5753 17.0408 -15.3720 24.6618 -3.3796 0.0000 0.0000 0.4965 -8.6404 -36.0279 5.1074 7.1250 -0.0000 -0.0000 31.0735 -63.6680 -14.7697
-15.6548 17.1393 -30.3242 3.4706 20.8631 9.7013 0.0000 0.0000 0.0000 -28.0572 -5.1856 -6.3704 2.8006 10.3650 30.1670 2.8423 -5.9199 -30.6843 1.3278 -7.2972 -20.5988 0.0000 0.0000 0.0000 13.9871 2.5816 -23.4012 -9.1749 -16.9190 56.6931 -1.6029 7.2334 -22.6780 -0.9918 -6.3382 17.7690 -7.1868 0.6651 9.4771 1.0856 0.1959 1.1608 5.1695 0.2239 -4.1354 -2.4869 1.3181 -15.0722 1.1278 2.2147 19.4060 1.0510 0.9905 8.4895 -0.0000 -0.0000 0.0000 -99.0255 5.4817 6.5928 20.7643 -31.5522 -5.9261 -0.0000 -0.0000 5.3489 8.2754 -15.7386 -2.2593 -7.1250 0.0000 -0.0000 -12.9961 14.3629 9.6213 -0.0000 -0.0000 0.0000 89.8076 2.7660 17.7990 -15.7064 25.1210 -3.5204 0.0000 -0.0000 -0.0180 -8.5651 -35.8686 5.0432 7.1250 -0.0000 -0.0000 30.9664 -63.5145 -14.6032
-15.5658 17.1183 -30.1995 3.7077 20.7276 9.9593 0.0000 0.0000 0.0000 -28.5376 -4.9056 -5.6556 2.6688 10.1385 29.4266 2.8618 -5.9146 -30.7957 1.2547 -7.1013 -20.0159 0.0000 0.0000 0.0000 13.2206 2.9235 -25.5578 -10.3416 -17.5975 60.6242 -1.2329 7.0527 -19.8389 -1.1182 -6.7176 18.8814 -7.3346 0.6217 9.6609 1.0278 0.1117 1.3065 5.2037 0.1778 -4.0726 -2.4334 1.3715 -15.2130 1.2438 2.2519 19.3762 1.0865 1.0238 8.5029 0.0000 0.0000 0.0000 -99.0054 5.2539 7.5061 20.9844 -31.8101 -6.0417 -0.0000 -0.0000 5.1709 8.9558 -15.8096 -2.4585 -7.1250 0.0000 -0.0000 -12.5425 14.2485 9.2993 0.0000 0.0000 0.0000 89.7599 2.3443 18.2938 -16.7570 26.5363 -3.9782 0.0000 -0.0000 -0.6657 -8.4305 -36.3792 5.0239 7.1250 -0.0000 -0.0000 31.7075 -63.9048 -15.2760
-15.4774 17.0962 -30.0614 3.9601 20.7142 10.2187 0.0000 0.0000 0.0000 -28.9930 -4.6283 -4.8752 2.5303 9.8929 28.6305 2.8524 -5.8518 -30.7508 1.2467 -7.0793 -19.9506 0.0000 0.0000 0.0000 12.4529 3.1090 -27.7434 -11.4564 -18.1513 64.2550 -0.9908 6.8068 -17.7655 -1.1811 -6.8974 19.4118 -7.4954 0.5607 9.9290 0.9503 -0.0081 1.3791 5.2302 0.1208 -4.1282 -2.3872 1.4045 -15.3040 1.4630 2.2393 19.3731 1.1521 1.0438 8.5157 -0.0000 -0.0000 0.0000 -98.9397 5.2441 8.6168 21.3628 -32.2493 -6.2424 -0.0000 -0.0000 4.8453 9.2130 -15.6842 -2.5107 -7.1250 0.0000 -0.0000 -12.3748 14.3548 9.1400 -0.0000 -0.0000 0.0000 89.6508 2.0621 18.6895 -17.4079 27.3924 -4.2733 0.0000 -0.0000 -1.2342 -8.4676 -36.7002 5.0842 7.1250 -0.0000 -0.0000 32.0579 -64.1808 -15.6671
-15.3915 17.0610 -29.9137 4.7046 20.8771 10.8364 0.0000 0.0000 0.0000 -29.8664 -4.4602 -4.1788 2.3793 9.6150 27.7388 2.8424 -5.9414 -30.6825 1.2523 -7.0947 -19.9962 0.0000 0.0000 0.0000 11.2296 2.9692 -30.1576 -12.4663 -18.5809 67.4593 -0.9078 6.4888 -16.9963 -1.0822 -6.6120 18.5708 -8.1383 0.4111 10.0596 0.7804 -0.2933 1.4001 5.4544 -0.0116 -4.1343 -2.2966 1.4806 -15.4272 1.6474 2.2828 19.3280 1.2049 1.0902 8.5199 0.0000 -0.0000 0.0000 -98.8441 5.0053 9.5980 21.4802 -32.3845 -6.3051 -0.0000 -0.0000 4.7521 9.2149 -15.8246 -2.5331 -7.1250 0.0000 -0.0000 -12.3700 14.2162 9.1737 0.0000 -0.0000 0.0000 89.5335 1.8440 19.0262 -17.8331 27.9429 -4.4708 0.0000 -0.0000 -2.0412 -9.2353 -36.4751 5.5211 7.1250 -0.0000 -0.0000 30.9838 -64.2021 -15.1068
-15.3009 17.0259 -29.7469 5.2873 21.1191 11.4615 0.0000 0.0000 0.0000 -30.5217 -4.2994 -3.3828 2.2104 9.2912 26.7106 2.8564 -6.1590 -30.7343 1.2482 -7.0835 -19.9630 0.0000 0.0000 0.0000 10.2445 2.7929 -32.5028 -13.3094 -18.8910 70.0838 -0.9507 6.2936 -17.3931 -1.0422 -6.4924 18.2200 -8.6679 0.2101 10.1139 0.7040 -0.6257 1.3936 5.7190 -0.1687 -4.1149 -2.3012 1.5443 -15.5632 1.8800 2.3225 19.3131 1.2900 1.1328 8.5348 -0.0000 -0.0000 0.0000 -98.8242 4.4849 10.4121 21.1941 -32.0542 -6.1526 -0.0000 -0.0000 4.8757 9.2848 -16.5567 -2.6673 -7.1250 0.0000 -0.0000 -12.3076 13.4892 9.3193 -0.0000 -0.0000 0.0000 89.3764 1.5733 19.2549 -18.1870 28.3959 -4.6378 0.0000 -0.0000 -3.1130 -10.1701 -35.7256 5.9797 7.1250 -0.0000 -0.0000 29.1220 -63.8209 -13.8633
-15.2047 16.9910 -29.5532 5.5737 21.0944 11.9198 0.0000 0.0000 0.0000 -30.9413 -4.0172 -2.4382 2.0384 8.9456 25.6254 2.8699 -6.0698 -30.8215 1.2794 -7.1681 -20.2144 0.0000 0.0000 0.0000 9.5616 3.0064 -34.5722 -13.9389 -19.0954 72.0178 -1.0294 6.1549 -18.1093 -1.1104 -6.6948 18.8142 -9.0642 0.0830 10.0711 0.6936 -0.8336 1.3912 5.9596 -0.2682 -4.0539 -2.3084 1.6404 -15.6451 2.0655 2.4166 19.2478 1.3646 1.1961 8.5222 -0.0000 -0.0000 0.0000 -98.7884 4.5055 11.6905 21.4952 -32.4018 -6.3132 -0.0000 -0.0000 4.5862 9.1799 -17.0679 -2.7156 -7.1250 0.0000 -0.0000 -12.3671 12.9927 9.4989 -0.0000 -0.0000 0.0000 89.2059 1.2242 19.5217 -18.4834 28.7717 -4.7796 0.0000 -0.0000 -3.4495 -10.4293 -35.7266 6.1345 7.1250 -0.0000 -0.0000 28.8492 -63.8911 -13.7696
-15.1124 16.9390 -29.3463 6.5228 20.7044 12.7996 0.0000 0.0000 0.0000 -32.0266 -3.4561 -1.7479 1.8573 8.5624 24.4356 2.8411 -6.3215 -30.6282 1.2380 -7.0557 -19.8805 0.0000 0.0000 0.0000 8.0724 3.5160 -36.8337 -14.3997 -19.2308 73.4215 -1.1160 6.1138 -18.8704 -0.8189 -5.7740 16.1302 -10.2691 0.0706 9.7890 0.4690 -0.9619 1.3245 6.4155 -0.3190 -3.9286 -2.1475 1.7295 -15.7271 2.2656 2.4558 19.1532 1.4096 1.2477 8.5028 -0.0000 0.0000 0.0000 -98.6268 5.0935 13.3568 22.5298 -33.5706 -6.8765 -0.0000 -0.0000 4.2963 8.8322 -17.3722 -2.6563 -7.1250 0.0000 -0.0000 -12.5894 12.7187 9.7525 -0.0000 0.0000 0.0000 89.1351 0.8086 19.4855 -18.8401 29.2195 -4.9525 0.0000 -0.0000 -3.6854 -9.9161 -35.8679 5.8483 7.1250 -0.0000 -0.0000 29.5530 -63.8739 -14.1229
-15.0100 16.8950 -29.1394 6.1398 20.6404 12.6547 0.0000 0.0000 0.0000 -31.6948 -2.4339 -0.5216 1.6871 8.1813 23.2662 2.8306 -6.9946 -30.4970 1.1108 -6.6961 -18.8180 0.0000 0.0000 0.0000 8.1146 3.9646 -38.0749 -14.6035 -19.2869 74.0393 -1.2692 6.0234 -20.1600 -0.3069 -3.5617 9.8468 -10.0012 0.0872 10.2720 0.5692 -0.9582 1.3787 6.3796 -0.3108 -4.1442 -2.0663 1.7651 -15.8781 2.5432 2.4258 19.0222 1.4861 1.2693 8.4833 -0.0000 0.0000 0.0000 -98.4781 5.4026 14.8182 23.3417 -34.4603 -7.3307 -0.0000 -0.0000 4.5177 8.0381 -18.0968 -2.5117 -7.1250 0.0000 -0.0000 -13.0927 12.0655 10.3471 -0.0000 0.0000 0.0000 89.0002 0.3491 19.3125 -19.1987 29.6648 -5.1288 0.0000 -0.0000 -3.9856 -9.8389 -35.8782 5.8037 7.1250 -0.0000 -0.0000 29.6460 -63.8620 -14.1630
-14.9199 16.8652 -28.9259 6.5547 20.9490 13.8225 0.0000 0.0000 0.0000 -32.0323 -2.5664 -0.1043 1.5294 7.8080 22.1325 2.8219 -7.0770 -30.4398 1.1332 -6.7608 -19.0087 0.0000 0.0000 0.0000 7.2764 4.2748 -40.7553 -14.6382 -19.2963 74.1443 -1.3497 5.7712 -20.8234 -0.2363 -3.1283 8.6361 -10.5722 -0.0947 10.0552 0.6310 -1.2495 1.1299 6.8068 -0.4315 -4.2209 -2.0642 1.8365 -16.0626 2.7578 2.4800 18.7699 1.5628 1.3185 8.4264 -0.0000 0.0000 0.0000 -98.4677 5.4191 17.4401 24.3077 -35.4879 -7.8845 -0.0000 -0.0000 1.8751 8.3848 -16.3909 -2.3818 -7.1250 0.0000 -0.0000 -12.9050 13.7151 9.7324 -0.0000 0.0000 0.0000 88.7126 -0.1506 19.0753 -19.6294 30.1933 -5.3437 0.0000 -0.0000 -4.2059 -9.8554 -35.9983 5.8302 7.1250 -0.0000 -0.0000 29.7680 -63.9684 -14.3000
-14.8134 16.8253 -28.7010 6.2072 21.0813 14.2329 0.0000 0.0000 0.0000 -31.7274 -2.3539 0.7627 1.3919 7.4642 21.0980 2.8596 -6.6045 -30.7008 1.2937 -7.2067 -20.3292 0.0000 0.0000 0.0000 7.2540 4.7437 -42.4712 -14.4965 -19.2578 73.7153 -1.4960 6.2870 -21.9269 -0.4656 -4.3768 12.1391 -10.3708 -0.2278 10.1921 0.8208 -1.4149 1.0617 6.9225 -0.5062 -4.3377 -1.9496 1.9837 -16.2765 2.8169 2.6442 18.3829 1.5794 1.4114 8.3304 0.0000 0.0000 0.0000 -98.4522 5.2446 18.4038 25.0052 -36.2093 -8.2930 -0.0000 -0.0000 3.3331 6.4126 -15.9382 -1.7677 -7.1250 0.0000 -0.0000 -14.2201 14.2810 10.6110 0.0000 0.0000 0.0000 88.4843 -0.7390 18.9774 -20.1924 30.8735 -5.6298 0.0000 -0.0000 -4.3383 -10.0250 -36.2096 5.9617 7.1250 -0.0000 -0.0000 29.8371 -64.1929 -14.4914
